<?xml version="1.0" standalone="no"?>
<!DOCTYPE svg PUBLIC "-//W3C//DTD SVG 20010904//EN"
 "http://www.w3.org/TR/2001/REC-SVG-20010904/DTD/svg10.dtd">
<svg version="1.0" xmlns="http://www.w3.org/2000/svg" width="1790.000000pt" height="847.000000pt" viewBox="0 0 1790.000000 847.000000" preserveAspectRatio="xMidYMid meet">
    <g transform="translate(0.000000,847.000000) scale(0.100000,-0.100000)" fill="#FFFFFF" stroke="none">
        <path d="M230 8457 c-131 -36 -230 -160 -230 -287 0 -107 72 -215 178 -267 l57 -28 638 -3 637 -3 15 -36 c34 -82 4 -167 -63 -178 -111 -19 -202 -78 -245 -159 -16 -30 -21 -59 -22 -111 0 -60 4 -78 31 -125 36 -63 100 -112 177 -135 41 -12 172 -19 632 -31 319 -8 598 -17 620 -20 37 -4 41 -8 53 -44 6 -22 12 -46 12 -55 0 -29 -33 -84 -55 -89 -45 -11 -106 -67 -131 -119 -31 -67 -31 -127 0 -192 28 -61 56 -87 121 -117 49 -22 57 -23 370 -23 313 0 321 1 370 23 65 30 93 56 121 117 58 122 3 253 -132 312 -31 14 -81 18 -259 22 l-219 6 -13 25 c-16 31 -16 68 -1 128 8 35 23 57 55 86 56 49 84 104 90 177 10 104 -57 207 -166 257 -65 30 -160 37 -596 46 -159 4 -327 9 -372 12 l-82 6 -15 39 c-20 50 -20 102 -1 144 15 31 19 32 87 38 261 22 389 301 222 486 -26 29 -69 62 -102 78 l-57 28 -840 2 c-643 1 -851 -1 -885 -10z"/>
        <path d="M7387 8029 c-58 -14 -92 -35 -131 -81 -77 -89 -75 -207 6 -294 74 -80 62 -79 653 -79 591 0 579 -1 653 79 107 116 68 292 -78 360 -44 20 -61 21 -555 23 -280 1 -527 -3 -548 -8z"/>
        <path d="M12425 7796 c-65 -21 -98 -42 -146 -93 -65 -69 -84 -125 -84 -248 0 -124 22 -181 99 -253 97 -92 49 -87 881 -87 832 0 784 -5 881 87 77 72 99 129 99 253 0 75 -5 112 -19 150 -26 65 -103 147 -169 176 l-52 24 -725 2 c-565 1 -734 -1 -765 -11z"/>
        <path d="M11935 6021 c-135 -63 -165 -233 -59 -333 59 -55 80 -58 369 -58 289 0 310 3 369 58 108 102 74 278 -66 336 -31 13 -85 16 -305 16 -240 0 -272 -2 -308 -19z"/>
        <path d="M3574 5959 c-69 -16 -145 -69 -179 -123 -26 -43 -30 -59 -30 -121 0 -96 34 -154 120 -206 62 -37 105 -93 105 -137 0 -12 -6 -38 -14 -57 l-15 -34 -558 -3 c-558 -3 -558 -3 -608 -26 -66 -30 -138 -103 -167 -166 -32 -72 -32 -190 1 -263 29 -66 110 -143 176 -169 47 -18 81 -19 640 -19 674 0 646 -3 741 87 70 66 98 131 99 228 0 101 -23 159 -95 235 -79 83 -110 181 -79 249 l12 25 402 3 402 3 69 35 c80 41 129 102 139 174 17 112 -31 201 -139 256 l-69 35 -456 2 c-257 1 -474 -3 -497 -8z"/>
        <path d="M16940 5857 c-49 -16 -123 -93 -138 -143 -26 -87 -7 -159 58 -224 66 -66 86 -70 395 -70 182 0 281 4 309 12 81 24 156 126 156 213 0 87 -75 189 -156 213 -54 16 -573 15 -624 -1z"/>
        <path d="M8823 5805 c-217 -60 -284 -300 -122 -439 79 -67 105 -71 459 -71 357 0 382 4 463 75 115 102 114 273 -4 373 -78 67 -98 71 -439 74 -241 2 -316 -1 -357 -12z"/>
        <path d="M13975 4105 c-109 -38 -166 -181 -116 -290 23 -51 79 -101 130 -116 43 -13 60 -44 41 -79 -9 -17 -26 -19 -253 -22 -226 -3 -245 -5 -290 -25 -72 -34 -120 -75 -153 -135 -25 -45 -29 -64 -29 -128 0 -64 4 -83 30 -128 35 -64 71 -96 145 -131 l55 -26 480 0 480 0 55 26 c74 35 110 67 145 131 26 45 30 64 30 128 0 64 -4 83 -29 128 -34 60 -81 102 -153 134 -37 17 -75 23 -163 27 -113 6 -115 6 -124 32 -5 15 -6 34 -3 43 6 15 103 16 1112 16 977 0 1110 2 1143 16 141 59 177 242 68 350 -24 25 -58 46 -81 53 -28 8 -396 11 -1260 11 -1026 -1 -1226 -3 -1260 -15z"/>
        <path d="M8095 4056 c-66 -21 -98 -42 -146 -93 -71 -76 -84 -121 -84 -298 0 -124 3 -159 19 -200 26 -65 103 -147 169 -176 52 -24 54 -24 542 -29 l490 -5 17 -50 c27 -79 22 -141 -23 -260 -16 -44 -28 -59 -58 -74 -53 -27 -125 -108 -147 -166 -15 -40 -19 -76 -19 -180 0 -115 3 -136 24 -182 29 -66 111 -143 176 -169 47 -18 80 -19 555 -19 475 0 508 1 555 19 65 26 147 103 176 169 21 46 24 67 24 182 0 163 -13 203 -100 295 -49 52 -69 83 -94 148 -35 92 -37 116 -12 187 l18 50 569 5 569 5 52 24 c66 29 143 111 169 176 15 41 19 76 19 185 0 120 -3 141 -24 187 -29 66 -111 143 -176 169 -48 18 -83 19 -735 19 -652 0 -687 -1 -735 -19 -65 -26 -147 -103 -176 -169 -22 -47 -24 -66 -24 -192 0 -125 3 -146 23 -191 28 -63 101 -135 166 -166 40 -18 55 -33 75 -71 33 -65 31 -118 -8 -196 l-31 -61 -262 2 -262 3 -24 60 c-33 81 -33 158 0 250 20 57 35 80 80 123 33 32 65 74 79 105 22 47 24 66 24 207 0 129 -3 163 -19 205 -26 65 -103 147 -169 176 l-52 24 -585 2 c-453 2 -594 -1 -625 -11z"/>
        <path d="M5444 2499 c-69 -16 -145 -69 -179 -123 -26 -43 -30 -59 -30 -121 0 -62 4 -78 30 -121 37 -58 112 -108 191 -124 35 -7 164 -10 367 -8 l314 3 69 35 c80 41 129 102 139 174 17 112 -31 201 -139 256 l-69 35 -326 2 c-179 1 -344 -3 -367 -8z"/>
        <path d="M16403 1990 c-125 -33 -201 -85 -247 -169 -90 -167 -3 -346 206 -422 59 -21 81 -23 351 -27 l287 -4 6 -23 c11 -43 0 -59 -60 -89 -195 -98 -171 -365 38 -429 58 -17 684 -17 742 0 100 31 174 125 174 223 0 59 -39 140 -82 173 -70 54 -103 60 -375 65 -287 5 -292 6 -258 70 14 25 39 47 80 70 76 42 105 71 141 135 25 44 29 63 29 127 0 64 -4 83 -30 129 -49 88 -123 138 -252 172 -67 17 -111 19 -377 18 -261 0 -310 -3 -373 -19z"/>
        <path d="M11230 1151 c-72 -23 -119 -63 -145 -123 -37 -90 3 -180 105 -234 32 -18 68 -19 462 -22 l427 -3 16 -44 c16 -41 16 -46 0 -88 -15 -40 -20 -45 -67 -57 -92 -23 -168 -116 -168 -205 0 -51 28 -111 71 -152 70 -66 20 -63 1103 -63 1085 0 1039 -3 1106 63 92 89 91 217 -1 304 -50 47 -81 56 -209 62 l-115 6 -15 42 c-13 38 -12 46 3 78 16 34 18 35 77 35 105 0 140 34 140 135 0 66 -15 102 -51 121 -40 20 -438 20 -478 0 -36 -19 -51 -55 -51 -121 0 -98 35 -135 129 -135 46 0 52 -3 66 -30 8 -16 15 -38 15 -50 0 -12 -7 -34 -15 -50 l-16 -30 -668 0 -669 0 -11 31 c-14 41 -14 74 1 115 10 28 16 32 59 37 83 10 147 53 183 124 41 81 -2 184 -99 236 -39 22 -48 22 -600 24 -308 1 -571 -2 -585 -6z"/>
        <path d="M5896 1124 c-125 -30 -232 -112 -280 -214 -32 -70 -30 -188 7 -261 32 -66 94 -127 166 -163 55 -28 157 -56 207 -56 26 0 34 -6 44 -30 10 -23 10 -37 2 -55 l-12 -25 -483 0 -483 0 -18 49 c-16 45 -16 51 -1 88 13 33 23 42 56 52 79 24 148 112 149 191 0 94 -64 186 -145 209 -53 15 -497 15 -550 0 -23 -7 -57 -28 -81 -53 -107 -107 -72 -282 68 -340 28 -12 74 -16 182 -16 l144 0 17 -43 c15 -40 15 -46 0 -84 l-17 -41 -166 -4 c-156 -3 -170 -5 -212 -28 -52 -29 -90 -81 -90 -122 0 -61 55 -123 130 -146 48 -16 2137 -36 2188 -22 166 45 190 198 43 273 -54 27 -55 27 -267 27 l-212 0 -12 29 c-8 21 -9 39 -3 58 l10 28 189 6 c105 4 207 12 229 19 116 36 208 109 252 199 37 73 39 191 7 261 -49 104 -155 184 -285 215 -89 21 -685 20 -773 -1z"/>
        <path d="M324 576 c-160 -40 -245 -190 -183 -326 37 -83 96 -127 197 -149 71 -15 593 -15 664 0 136 29 218 121 218 246 0 87 -84 194 -178 224 -54 18 -649 22 -718 5z"/>
    </g>
</svg>
