<?xml version="1.0" standalone="no"?>
<!DOCTYPE svg PUBLIC "-//W3C//DTD SVG 20010904//EN"
 "http://www.w3.org/TR/2001/REC-SVG-20010904/DTD/svg10.dtd">
<svg version="1.0" xmlns="http://www.w3.org/2000/svg" width="1804.000000pt" height="958.000000pt" viewBox="0 0 1804.000000 958.000000" preserveAspectRatio="xMidYMid meet">

    <g transform="translate(0.000000,958.000000) scale(0.100000,-0.100000)" fill="#85CC66" stroke="none">
        <path d="M11533 9565 c-141 -31 -269 -129 -330 -253 -36 -72 -38 -81 -38 -172 0 -91 2 -100 38 -172 43 -89 117 -163 208 -209 115 -58 129 -59 767 -59 l583 0 20 -47 c39 -90 59 -185 59 -274 0 -92 -12 -137 -69 -265 l-32 -71 -84 -12 c-290 -40 -521 -219 -607 -470 -30 -88 -32 -258 -4 -341 88 -257 308 -434 596 -480 40 -6 364 -10 855 -10 491 0 815 4 855 10 288 46 508 223 596 480 28 83 26 253 -4 341 -84 245 -311 425 -590 468 -42 7 -224 11 -445 11 l-375 0 -34 63 c-126 228 -129 364 -13 557 55 92 60 98 112 134 65 44 121 110 156 184 29 61 32 76 32 163 0 90 -2 99 -38 171 -62 126 -189 223 -334 253 -97 21 -1786 20 -1880 0z"/>
        <path d="M1123 8405 c-230 -50 -413 -273 -413 -505 0 -187 118 -373 292 -460 44 -22 89 -40 99 -40 13 0 28 -19 50 -62 99 -197 93 -323 -23 -495 l-43 -63 -208 0 c-256 0 -321 -11 -466 -82 -91 -43 -117 -62 -192 -137 -75 -75 -94 -101 -137 -192 -31 -63 -57 -134 -66 -181 -20 -99 -21 -309 -1 -403 62 -294 286 -519 577 -579 66 -14 170 -16 703 -16 533 0 637 2 703 16 291 60 516 285 576 576 21 99 21 305 1 402 -48 231 -191 416 -400 516 -55 26 -123 53 -151 60 -50 11 -51 13 -87 83 -55 107 -67 151 -67 237 0 75 20 158 64 263 l16 37 1093 0 c1199 0 1155 -2 1279 61 79 40 180 137 223 214 58 104 78 231 54 347 -40 192 -211 362 -406 403 -98 21 -2975 21 -3070 0z"/>
        <path d="M9806 6324 c-202 -49 -363 -211 -411 -415 -32 -137 -14 -303 48 -428 66 -135 213 -249 368 -286 96 -22 1652 -22 1748 0 206 49 367 210 416 416 19 82 19 216 0 298 -49 206 -210 367 -416 416 -92 21 -1662 21 -1753 -1z"/>
        <path d="M3153 4795 c-230 -50 -413 -273 -413 -505 0 -231 178 -450 411 -505 94 -22 1223 -22 1317 0 190 45 354 204 396 385 41 174 -3 335 -130 470 -75 80 -170 134 -271 155 -96 21 -1217 20 -1310 0z"/>
        <path d="M15213 3686 c-181 -44 -334 -202 -372 -384 -25 -120 -10 -252 42 -362 60 -128 203 -239 345 -269 29 -6 142 -11 251 -11 l198 0 28 -57 c34 -70 37 -141 8 -223 l-20 -55 -844 -5 c-660 -4 -853 -8 -884 -19 -78 -26 -155 -74 -213 -135 -66 -68 -105 -136 -127 -223 -66 -253 103 -526 366 -588 96 -22 2012 -22 2108 0 218 52 381 255 381 475 0 210 -162 420 -363 470 -42 11 -47 16 -71 70 -36 80 -34 124 11 215 l37 75 343 0 c211 0 362 4 395 11 187 39 348 200 387 387 14 68 14 176 0 244 -39 187 -200 348 -387 387 -79 16 -1549 14 -1619 -3z"/>
        <path d="M9283 3566 c-91 -29 -171 -115 -194 -208 -18 -75 -8 -273 17 -328 27 -58 86 -117 143 -144 44 -20 62 -21 519 -24 l473 -3 10 -27 c7 -19 7 -38 -1 -64 -9 -32 -19 -42 -64 -63 -64 -30 -118 -83 -148 -144 -32 -65 -33 -224 -2 -291 28 -59 86 -117 143 -144 45 -21 57 -21 606 -21 550 0 561 0 606 21 58 27 116 85 143 143 30 66 30 226 0 291 -27 56 -83 113 -143 142 -45 22 -54 23 -423 26 l-378 3 -15 29 c-29 56 -10 100 63 148 61 39 107 106 123 176 18 82 8 271 -18 326 -25 56 -82 113 -142 142 l-46 23 -615 2 c-485 2 -624 -1 -657 -11z"/>
        <path d="M503 2506 c-181 -44 -334 -202 -372 -384 -14 -69 -14 -335 0 -404 39 -187 200 -348 387 -387 75 -15 2459 -15 2534 0 187 39 348 200 387 387 14 69 14 335 0 404 -39 187 -200 348 -387 387 -80 17 -2479 14 -2549 -3z"/>
        <path d="M5721 1774 c-239 -64 -388 -311 -327 -541 22 -81 57 -143 116 -204 180 -184 480 -185 660 0 173 178 173 446 0 621 -119 120 -290 167 -449 124z"/>
        <path d="M16253 865 c-141 -31 -269 -129 -330 -253 -36 -72 -38 -81 -38 -172 0 -91 2 -100 38 -172 43 -89 117 -163 208 -209 116 -58 122 -59 839 -59 717 0 723 1 839 59 80 41 161 118 199 189 31 58 32 63 32 192 0 129 -1 134 -32 192 -58 110 -191 205 -325 233 -96 21 -1336 20 -1430 0z"/>
    </g>
</svg>
