<?xml version="1.0" standalone="no"?>
<!DOCTYPE svg PUBLIC "-//W3C//DTD SVG 20010904//EN"
 "http://www.w3.org/TR/2001/REC-SVG-20010904/DTD/svg10.dtd">
<svg version="1.0" xmlns="http://www.w3.org/2000/svg"
 width="902.000000pt" height="902.000000pt" viewBox="0 0 902.000000 902.000000"
 preserveAspectRatio="xMidYMid meet">
<metadata>
Created by potrace 1.16, written by Peter Selinger 2001-2019
</metadata>
<g transform="translate(0.000000,902.000000) scale(0.100000,-0.100000)"
fill="#000000" stroke="none">
<path d="M4205 9010 c-1492 -110 -2804 -919 -3569 -2200 -779 -1303 -839
-2945 -159 -4304 303 -606 738 -1136 1278 -1557 842 -656 1916 -996 2972 -940
654 35 1222 183 1792 466 1287 641 2199 1862 2435 3262 49 290 60 434 60 773
0 319 -6 416 -45 680 -201 1350 -1023 2552 -2213 3235 -536 307 -1142 502
-1771 570 -169 19 -614 27 -780 15z"/>
</g>
</svg>
